<svg xmlns="http://www.w3.org/2000/svg" width="504.61386" height="250.88757" viewBox="0 0 504.61385 250.88757"><path d="M466.014 527.877c-.79 0-.7-1.646-.7-1.646-.089-12.532-.579-27.51-1.915-36.311-.907-6.084-1.701-8.988-4.324-11.794-2.68-2.74-5.36-3.527-11.104-4.445-10.332-1.538-14.968-1.483-25.077-1.713 0 0-1.685.063-1.685-.964 0-.937 1.685-.84 1.685-.84 4.701.01 19.799-.87 25.077-1.842 5.744-.92 8.424-1.696 11.104-4.423 2.623-2.804 3.417-5.71 4.324-11.79 1.884-12.698 1.83-33.514 1.83-33.514s.02-1.735.785-1.735c.806 0 .762 1.668.762 1.668s-.014 20.883 1.898 33.581c.896 6.08 1.696 8.986 4.32 11.79 2.67 2.727 5.355 3.503 11.086 4.423 12.085 1.931 25.485 1.802 25.485 1.802s1.437.05 1.437.88c0 .965-1.519.931-1.519.931s-13.318-.179-25.403 1.746c-5.73.918-8.417 1.706-11.087 4.445-2.623 2.806-3.423 5.71-4.32 11.794-1.911 12.7-1.968 36.222-1.968 36.222s.173 1.735-.691 1.735zm-154.019-71.645c-4.238 0-7.73-1.524-10.473-4.576-2.745-3.048-4.117-6.68-4.117-10.895 0-2.427.465-4.653 1.4-6.675.93-2.024 2.296-3.87 4.102-5.545 1.801-1.674 4.843-3.899 9.127-6.662 4.281-2.764 6.899-4.578 7.844-5.447 1.406-1.275 2.444-2.652 3.11-4.13.67-1.476 1-2.945 1-4.393 0-2.608-.881-4.864-2.647-6.78-1.767-1.908-4.171-2.861-7.213-2.861-2.633 0-5.049.688-7.25 2.065-2.206 1.378-3.844 3.11-4.913 5.197-1.074 2.079-1.927 5.219-2.557 9.417h-1.432v-20.055h1.432c.169 1.37.43 2.277.785 2.712.352.441.835.664 1.45.664.633 0 2.134-.464 4.518-1.383 2.377-.918 3.946-1.446 4.709-1.595a19.767 19.767 0 0 1 4.062-.397c4.588 0 8.34 1.605 11.258 4.82 2.913 3.207 4.376 7.032 4.376 11.466 0 2.329-.463 4.562-1.385 6.692a16.096 16.096 0 0 1-3.948 5.551c-1.713 1.573-4.893 3.824-9.547 6.761-5.706 3.6-9.322 6.48-10.839 8.64-1.056 1.469-1.581 3.096-1.581 4.88 0 2.334.83 4.413 2.495 6.246 1.663 1.827 3.773 2.742 6.314 2.742 2.254 0 4.433-.664 6.539-1.995 2.102-1.33 3.725-3.127 4.864-5.393 1.139-2.266 1.926-5.303 2.368-9.125h1.43v20.054h-1.43c-.243-1.357-.57-2.255-.974-2.705-.404-.446-.928-.666-1.562-.666-.562 0-1.53.359-2.9 1.079-2.968 1.53-5.77 2.292-8.415 2.292zm307.214 0c-4.239 0-7.731-1.524-10.472-4.576-2.745-3.048-4.116-6.68-4.116-10.895 0-2.427.463-4.653 1.398-6.675.932-2.024 2.297-3.87 4.101-5.545 1.806-1.674 4.842-3.899 9.127-6.662 4.283-2.764 6.9-4.578 7.844-5.447 1.409-1.275 2.444-2.652 3.112-4.13.668-1.476.998-2.945.998-4.393 0-2.608-.877-4.864-2.647-6.78-1.766-1.908-4.17-2.861-7.215-2.861-2.63 0-5.048.688-7.247 2.065-2.207 1.378-3.84 3.11-4.912 5.197-1.074 2.079-1.927 5.219-2.558 9.417h-1.433v-20.055h1.433c.17 1.37.43 2.277.784 2.712.354.441.837.664 1.448.664.636 0 2.139-.464 4.518-1.383 2.382-.918 3.949-1.446 4.709-1.595a19.83 19.83 0 0 1 4.064-.397c4.59 0 8.34 1.605 11.258 4.82 2.913 3.207 4.374 7.032 4.374 11.466 0 2.329-.46 4.562-1.385 6.692a16.051 16.051 0 0 1-3.946 5.551c-1.713 1.573-4.893 3.824-9.545 6.761-5.71 3.6-9.324 6.48-10.845 8.64-1.05 1.469-1.575 3.096-1.575 4.88 0 2.334.83 4.413 2.498 6.246 1.662 1.827 3.765 2.742 6.316 2.742 2.25 0 4.427-.664 6.537-1.995 2.097-1.33 3.72-3.127 4.86-5.393 1.141-2.266 1.926-5.303 2.37-9.125h1.424v20.054h-1.424c-.244-1.357-.574-2.255-.975-2.705-.407-.446-.928-.666-1.562-.666-.565 0-1.527.359-2.9 1.079-2.968 1.53-5.77 2.292-8.416 2.292zm-229.2-.002-17.795-48.167c-1.52-4.245-2.902-7.06-4.151-8.445-.61-.696-1.958-1.26-4.035-1.687v-1.688h15.74v1.688c-2.399.192-3.958.626-4.676 1.303-.724.667-1.085 1.448-1.085 2.338 0 1.112.416 2.798 1.25 5.058l3.379 9.156 9.983 27.088s9.16-26.322 12.113-34.813c-3.97-.43-7.646-1.485-10.089-2.712-7.843-3.94-11.755-8.72-13.094-15.912-.991-5.315.739-11.552 3.485-15.734a29.937 29.937 0 0 1 4.153-5.065c2.048-2.085 4.194-3.785 7.475-5.696 2.698-1.572 6.009-3.192 9.978-4.384.118-.447.242-.89.396-1.318 1.23-3.481 3.656-6.694 5.828-8.803a20.297 20.297 0 0 1 1.715-1.586c3.19-2.583 6.318-4.154 9.329-5.109 5.422-1.724 8.924-2.187 15.121-1.988 5.944.19 17.166 2.093 26.179 5.74 4.822 1.95 15.419 6.832 21.196 9.78 5.78 2.944 13.816 7.19 13.816 7.19s7.468-5.344 9.724-6.862c5.251-3.531 13.713-8.839 23.845-12.453 1.79-.64 5.673-1.649 6.251-1.785a55.094 55.094 0 0 1 6.152-1.08c14.269-1.658 23.621 1.457 29.443 8.347 2.812 3.33 4.469 7.37 4.059 11.822-.08.65-.186 1.264-.316 1.874.446.242.901.477 1.32.736 5.088 3.137 8.325 6.34 10.815 10.018 3.013 4.455 4.61 10.618 3.475 15.433a21.777 21.777 0 0 1-3.54 7.73h16.747v1.687c-2.031.137-3.617.788-4.756 1.949-1.016 1.038-2.146 3.185-3.373 6.43-.081.22-17.462 49.92-17.462 49.92h-1.506l-17.797-48.167a78.02 78.02 0 0 0-.637-1.703c-.462-1.066-.927-1.968-1.392-2.58-1.268-1.677-2.674-2.845-4.211-3.503-1.54-.656-4.222-.987-8.051-.987h-4.119c-3.197 0-5.104.144-5.722.43a2.714 2.714 0 0 0-1.357 1.342c-.403.89-.607 2.53-.607 4.918v37.685c0 3.447.194 5.629.579 6.539.385.911 1.107 1.667 2.163 2.264 1.052.6 2.899.881 5.523.856v1.551h-22.384v-1.551h1.87c1.842 0 3.232-.637 4.167-1.906.679-.928 1.022-3.222 1.022-6.889v-37.767c0-3.337-.255-5.461-.769-6.379-.877-1.612-2.351-2.416-4.42-2.416h-1.87v-1.724h47.77v1.688c-2.4.191-3.96.626-4.679 1.303-.724.666-1.084 1.448-1.084 2.338 0 1.112.415 2.798 1.247 5.058l3.381 9.156 9.983 27.088s12.975-37.277 13.024-37.426c.538-1.718.819-3.06.819-3.984 0-.942-.351-1.733-1.05-2.388-.502-.47-1.355-.8-2.535-.988-2.173 2.439-4.982 4.581-8.462 6.24-2.89 1.377-6.773 2.814-11.697 3-.448.024-.745-.127-.773-.43-.024-.261.242-.502.685-.54 4.056-.344 7.21-1.393 10.363-3.177 5.787-3.488 9.076-8.114 10.299-15 .808-4.6-.431-9.739-1.977-12.965-1.661-3.465-4.88-7.773-9.627-10.785-.134.354-.273.71-.44 1.074-.977 2.096-2.408 4.14-4.528 6.202-1.316 1.34-2.912 2.687-4.864 4.056-12.502 8.794-31.381 7.91-49.747 1.093-2.65-.984-7.118-2.828-9.987-4.207a5514.981 5514.981 0 0 1-9.156-4.423s-7.587 6.505-14.205 12.556a466.05 466.05 0 0 0 4.966 2.567c8.377 4.256 12.917 6.743 19.398 9.078 5.738 2.065 8.264 2.64 10.776 3.075.436.078.669.356.644.592-.028.332-.42.459-.884.428-1.525-.108-5.396-.795-11.597-2.518-7.544-2.094-14.679-4.33-26.616-10.147a225.716 225.716 0 0 0-17.133 18.004c-7.228 8.49-14.685 19.286-16.95 22.983 4.137 1.099 7.192 2.957 9.178 5.581 1.998 2.65 3.001 5.775 3.001 9.376 0 3.37-.879 6.274-2.63 8.706-1.75 2.434-3.884 4.106-6.394 5.018-2.51.901-6.407 1.357-11.703 1.357h-18.15v-1.684h1.868c1.881 0 3.3-.635 4.255-1.901.682-.894 1.024-3.182 1.024-6.863V406.69c0-3.339-.254-5.458-.769-6.349-.909-1.608-2.406-2.41-4.51-2.41h-1.869v-1.687h21.3v1.688h-1.943c-1.862 0-3.254.627-4.183 1.897-.68.886-1.025 3.174-1.025 6.86v17.02c.381-.03.754-.052 1.12-.063.358-.018.694-.024 1.007-.024.768 0 1.762.029 2.986.086l1.92-2.403c2.991-4.686 8.815-12.411 17.201-22.2 4.97-5.802 12.915-13.589 17.339-17.751-8.377-4.178-17.897-9.063-28.251-13.934-15.927-7.489-25.435-8.48-33.035-8.48-1.854 0-3.747.198-5.625.533-.424 3.422-.116 6.8 1.381 9.65 1.69 3.222 3.694 5.53 6.247 7.146 2.555 1.612 5.114 2.573 9.074 3.088 2.318.304 5.085.08 7.366-.274 2.286-.349 4.549-.97 6.796-1.798.332-.12.85-.237 1.145.192.21.294-.127.848-.618 1.03a34.924 34.924 0 0 1-6.772 1.857c-1.177.195-2.37.378-3.574.46-1.269.086-3.451.145-5.26-.088-8.467-1.077-15.077-4.63-18.177-10.15a16.166 16.166 0 0 1-1.92-10.078c-3.073.947-5.999 2.275-8.512 3.898-2.328 1.499-3.923 2.846-5.249 4.12-1.98 2.02-3.195 3.96-4.44 6.514-1.723 3.531-2.694 8.53-1.958 13.142 1.097 6.877 4.454 10.98 10.33 14.477 2.742 1.633 5.851 2.692 9.057 3.257.103-.292.16-.457.162-.467.541-1.718.823-3.061.823-3.984 0-.942-.351-1.733-1.048-2.388-.696-.652-2.04-1.038-4.019-1.145v-1.688h19.713v1.688c-2.034.137-3.62.788-4.756 1.949-1.019 1.038-2.146 3.185-3.375 6.43a.32.32 0 0 1-.015.05c.76-.038 1.515-.097 2.258-.186 5.961-.71 8.952-3.352 9.765-4.073.25-.221.407-.402.562-.534.16-.131.52-.3.808-.052.327.284.1.664.06.754-.048.09-.296.36-.48.53-1.042.997-4.817 3.923-10.723 4.953a38.1 38.1 0 0 1-2.87.376c-3.135 8.96-16.824 48.102-16.824 48.102zm108.6 0c-4.615 0-8.873-1.347-12.763-4.045-3.898-2.698-6.952-6.496-9.175-11.4-2.22-4.9-3.334-10.278-3.334-16.131 0-7.267 1.69-13.584 5.071-18.946 4.536-7.21 10.928-10.815 19.188-10.815 4.578 0 8.54 1.215 11.87 3.65 3.334 2.432 6.247 6.275 8.75 11.519l-1.14.84c-2.957-4.838-5.678-8.068-8.15-9.695-2.468-1.624-5.318-2.438-8.549-2.438-3.717 0-7.03 1.04-9.926 3.116-2.9 2.076-5.073 5.057-6.515 8.957-1.443 3.888-2.166 8.49-2.166 13.801 0 6.429.765 11.807 2.293 16.135 1.528 4.327 3.622 7.479 6.29 9.454 2.67 1.975 5.65 2.967 8.953 2.967 3.943 0 7.317-1.33 10.128-3.983 2.814-2.655 4.976-7 6.495-13.038h1.143l-1.143 20.052h-1.43c-.266-1.379-.72-2.455-1.353-3.228-.49-.544-1.06-.817-1.72-.817-.441 0-1.177.316-2.198.944-3.49 2.064-7.034 3.101-10.618 3.101zm158.689 0c-4.24 0-7.732-1.524-10.478-4.574-2.743-3.048-4.114-6.679-4.114-10.893 0-2.427.467-4.652 1.398-6.675.932-2.024 2.295-3.875 4.103-5.549 1.807-1.673 4.845-3.896 9.132-6.657 4.276-2.765 6.891-4.58 7.841-5.45 1.403-1.273 2.442-2.651 3.11-4.13.667-1.476.998-2.943.998-4.39 0-2.608-.88-4.868-2.645-6.783-1.765-1.909-4.174-2.863-7.215-2.863-2.63 0-5.05.69-7.252 2.065-2.205 1.38-3.842 3.112-4.911 5.2-1.073 2.078-1.927 5.218-2.556 9.416h-1.429v-20.055h1.429c.17 1.37.428 2.276.784 2.712.351.441.836.662 1.446.662.635 0 2.144-.46 4.524-1.381 2.381-.916 3.948-1.447 4.705-1.597 1.267-.266 2.616-.395 4.062-.395 4.59 0 8.342 1.605 11.26 4.82 2.915 3.207 4.376 7.03 4.376 11.464 0 2.33-.461 4.566-1.383 6.696a16.075 16.075 0 0 1-3.957 5.551c-1.706 1.573-4.884 3.824-9.538 6.76-5.71 3.6-9.32 6.479-10.843 8.638-1.049 1.47-1.58 3.098-1.58 4.884 0 2.332.833 4.409 2.499 6.243 1.662 1.826 3.768 2.742 6.316 2.742 2.252 0 4.426-.666 6.534-1.995 2.108-1.33 3.725-3.125 4.862-5.391 1.143-2.266 1.934-5.305 2.375-9.127h1.426v20.052h-1.426c-.251-1.356-.576-2.254-.977-2.705-.407-.444-.928-.664-1.562-.664-.565 0-1.537.359-2.9 1.079-2.97 1.528-5.774 2.29-8.414 2.29zm-324.73-1.346-.574-13.793h1.394c.17 2.653.708 4.76 1.61 6.314.9 1.561 1.987 2.616 3.254 3.162.973.404 2.62.611 4.935.611h5.96v-44.49c0-3.363-.275-5.52-.82-6.456-.893-1.538-2.406-2.301-4.54-2.301h-1.784v-1.688h21.293v1.688h-1.757c-1.97 0-3.43.612-4.382 1.854-.674.913-1.007 3.213-1.007 6.904v44.49h7.042c2.062 0 3.727-.4 4.996-1.194 1.261-.796 2.276-2.033 3.04-3.701.465-1.043.834-2.772 1.107-5.193h1.396l-.575 13.793zm105.056-3.036c3.185 0 5.739-1.159 7.671-3.47 1.934-2.313 2.9-5.318 2.9-9.013 0-3.784-1.195-6.895-3.589-9.34-2.395-2.44-5.95-3.664-10.664-3.664-.22 0-.5.005-.836.022-.342.014-.744.019-1.206.019v24.266c2.406.785 4.317 1.18 5.724 1.18zm105.661-71.604c2.45.031 4.96-.141 7.61-.52 5.435-.78 11.244-3.68 15.345-7.69 2.077-2.141 3.672-4.573 4.475-7.162.233-.79.385-1.588.497-2.35-4.604-2.104-10.289-3.493-15.804-3.534-.489.003-.979.005-1.461.015-.018 0-.035 0-.054.002-.428.012-.851.035-1.273.054-9.034.491-17.274 3.62-22.607 9.376-.509.55-1.003.615-1.33.39-.303-.21-.361-.795.127-1.34 3.328-3.702 12.432-9.837 26.727-9.837.126 0 .254.006.38.006.082 0 .16-.006.245-.006 5.169 0 10.545 1.025 15.214 2.829.004-.254.01-.517 0-.74-.07-1.538-.271-2.787-.698-4.191-2.46-8.147-10.554-13.793-20.927-13.892-4.324-.04-6.545.089-10.16.778-1.806.342-4.046.948-6.544 1.806-5.804 2.002-11.605 5.203-19.683 10.733-4.238 2.903-11.174 8.366-13.073 9.866.578.31 4.967 2.634 7.267 3.819 3.014 1.551 8.825 4.152 13.04 5.948 8.525 3.631 15.338 5.548 22.687 5.64zm-66.37-2.044c6.325-5.62 13.535-11.174 14.711-12.1-.667-.36-6.036-3.267-10.413-5.617-4.669-2.513-15.507-8.243-22.618-11.463-5.48-2.481-14.691-6.543-26.057-7.115-8.12-.41-16.023 2.81-19.746 5.838-.47.38-.905.77-1.314 1.16-2.854 2.93-4.068 6.029-4.57 8.426-.016.063-.023.127-.034.192a43.906 43.906 0 0 1 8.297-.778c8.153 0 21.876 1.037 36.51 8.354 6.546 3.275 17.003 8.784 25.234 13.103z" style="fill:#0077b4;fill-opacity:1;fill-rule:nonzero;stroke:none;stroke-width:1.47513" transform="matrix(1.33333 0 0 -1.33333 -396.54 703.836)"/></svg>